<svg width="264" height="17" viewBox="0 0 264 17" fill="none" xmlns="http://www.w3.org/2000/svg">
<path d="M246.298 16.3169C245.203 16.2595 244.108 16.1765 243.022 16.151L239.968 16.0744C234.387 15.9339 228.806 15.7615 223.226 15.7041C217.386 15.6466 211.546 15.5573 205.715 15.5445C199.885 15.5317 193.795 15.5445 187.84 15.5445C176.224 15.5828 164.615 15.6126 153.011 15.6339C141.408 15.6552 129.882 15.6552 118.433 15.6339C112.669 15.6339 106.983 15.5254 101.258 15.4487C95.5337 15.3721 90.0299 15.2572 84.4109 15.1168C83.1814 15.0849 81.9423 15.0274 80.7128 14.9764C79.4833 14.9253 78.2731 14.8934 77.0532 14.8359C73.9283 14.6784 70.8098 14.5061 67.6977 14.3188C62.2611 13.9932 56.8438 13.5528 51.3688 13.2847C45.6729 12.9974 39.9578 12.8314 34.2523 12.6016C31.6781 12.4931 29.0942 12.3654 26.5681 12.1356C23.6865 11.8738 20.7473 11.5546 17.8561 11.1588C14.9649 10.763 12.2755 10.38 9.48036 10.0098C8.13564 9.82464 6.79086 9.65866 5.43652 9.53098C3.89969 9.38416 2.38208 9.23732 0.874054 9.02027C0.144043 8.91813 0 8.27338 0 7.85844C0.00183105 7.62655 0.0568542 7.39621 0.163269 7.17537C0.278534 6.99024 0.499451 6.69659 0.874054 6.70297C3.60193 6.76681 6.32983 6.82425 9.05772 6.90724C11.7856 6.99023 14.5711 7.04769 17.3278 7.07322C22.6779 7.11791 28.0473 6.99661 33.3974 6.84979L30.6599 6.6072C27.3845 6.31355 24.1188 5.96884 20.8338 5.74541C19.076 5.64326 17.3182 5.55389 15.5797 5.41983C14.6864 5.3496 13.8123 5.26661 12.9382 5.1517C12.0641 5.03679 11.0172 4.85806 10.1431 4.6857C10.0032 4.67773 9.86838 4.64671 9.75098 4.59544C9.63359 4.54416 9.53728 4.47425 9.47075 4.39203C9.21396 4.12317 9.06207 3.81599 9.02888 3.4983C8.06836 3.30679 7.90509 2.39391 7.90509 1.8449C7.89807 1.50831 7.97931 1.17348 8.14522 0.855425C8.30852 0.574538 8.61588 0.172355 9.16338 0.172355C12.045 0.172355 14.8401 0.0255351 17.6832 0H18.6437C21.0931 0 23.5328 0.0702216 25.9725 0.159595C31.4187 0.351108 36.8553 0.587293 42.3015 0.842645C44.8276 0.963937 47.3538 1.11077 49.88 1.20652C52.9729 1.3342 56.0658 1.42357 59.1586 1.50656C64.3359 1.64062 69.5227 1.6917 74.7095 1.75554C80.6456 1.82576 86.5816 1.9279 92.5273 2.11303C98.0215 2.28539 103.516 2.51521 109.01 2.75141L125.569 3.38979C131.217 3.61322 136.884 3.78559 142.542 3.95156C145.423 4.03455 148.305 4.06009 151.186 4.11116C153.895 4.16223 156.613 4.18138 159.322 4.20691C164.663 4.25798 170.003 4.2899 175.344 4.32181C186.121 4.39842 196.895 4.50268 207.665 4.63461C213.582 4.69845 219.502 4.76868 225.425 4.84529C228.441 4.87721 231.457 4.96019 234.483 5.01764C237.057 5.06233 239.641 5.18363 242.215 5.26662L250.447 5.56666L255.355 5.75817L257.478 5.84116L259.399 5.93052C259.86 5.93052 260.312 6.00074 260.773 6.05181C261.281 6.12886 261.779 6.2335 262.261 6.36463C262.546 6.51218 262.755 6.71531 262.857 6.94554C263.172 7.5667 263.172 8.23951 262.857 8.86068L262.598 9.2118C262.521 9.29838 262.416 9.37183 262.289 9.42617C262.162 9.48052 262.018 9.51423 261.868 9.52459C261.313 9.63858 260.748 9.73024 260.177 9.79909C260.029 9.78777 259.886 9.75361 259.761 9.69931C259.636 9.64501 259.532 9.57207 259.457 9.48629C259.397 9.42904 259.342 9.36934 259.293 9.30755H257.516L255.595 9.27564L250.562 9.19902C248.737 9.1671 246.922 9.14795 245.097 9.1288L245.664 9.16071C249.967 9.37776 254.308 9.60121 258.554 9.85656C258.883 9.87647 259.199 9.94973 259.476 10.0699C259.752 10.1902 259.98 10.3536 260.139 10.546C260.661 11.0708 260.99 11.67 261.099 12.2952H263.366C263.894 12.2952 264 12.9016 264 13.1378C264 13.374 263.894 13.9741 263.366 13.9741H261.195C261.129 14.5048 260.965 15.028 260.705 15.5317L260.12 16.3106C259.957 16.5012 259.729 16.6632 259.453 16.7832C259.177 16.9031 258.862 16.9775 258.535 17C254.433 16.7319 250.361 16.5212 246.298 16.3169Z" fill="#217DC1"/>
</svg>
